<?xml version="1.0" standalone="no"?>
<!DOCTYPE svg PUBLIC "-//W3C//DTD SVG 20010904//EN"
 "http://www.w3.org/TR/2001/REC-SVG-20010904/DTD/svg10.dtd">
<svg version="1.0" xmlns="http://www.w3.org/2000/svg"
 width="700.000000pt" height="700.000000pt" viewBox="0 0 700.000000 700.000000"
 preserveAspectRatio="xMidYMid meet">
<metadata>
Created by potrace 1.11, written by Peter Selinger 2001-2013
</metadata>
<g transform="translate(0.000000,700.000000) scale(0.100000,-0.100000)"
fill="#000000" stroke="none">
<path d="M1997 6424 c-1 -1 -42 -4 -92 -8 -103 -7 -119 -9 -235 -37 -348 -85
-659 -308 -861 -616 -96 -148 -181 -358 -205 -508 -3 -22 -7 -42 -9 -45 -14
-23 -18 -398 -18 -1720 0 -833 3 -1553 7 -1599 42 -483 335 -921 768 -1146 97
-51 272 -118 338 -130 14 -3 36 -7 50 -10 121 -26 245 -28 1725 -27 1386 0
1722 3 1745 17 4 3 22 7 41 9 166 23 415 132 586 258 99 73 225 199 303 303
120 162 225 401 256 585 2 14 6 34 9 45 2 11 7 56 11 100 9 107 9 3107 0 3214
-41 477 -331 915 -758 1144 -122 65 -291 125 -403 143 -22 3 -42 7 -45 9 -23
14 -394 18 -1703 19 -830 1 -1509 0 -1510 0z m1717 -1129 c40 -19 43 -25 109
-186 30 -74 112 -273 181 -444 70 -170 131 -319 136 -330 5 -11 36 -85 68
-165 114 -280 194 -475 213 -517 10 -23 19 -45 19 -48 0 -3 17 -47 39 -98 21
-51 114 -276 206 -502 92 -225 173 -423 180 -440 7 -16 61 -145 119 -287 109
-267 115 -290 81 -342 -34 -52 -127 -60 -171 -14 -11 13 -33 52 -47 88 -14 36
-48 119 -75 185 -37 90 -721 1755 -793 1931 -6 16 -17 43 -24 59 -7 17 -69
167 -138 335 -162 395 -153 374 -159 359 -3 -8 -46 -113 -96 -234 -49 -121
-125 -305 -167 -410 -42 -104 -92 -226 -110 -270 -18 -44 -58 -142 -89 -217
-31 -76 -56 -140 -56 -143 0 -3 78 -5 174 -5 95 0 186 -5 202 -10 89 -33 90
-168 1 -205 -25 -10 -180 -13 -708 -13 -653 0 -677 0 -708 19 -66 40 -73 127
-16 178 l34 29 163 2 c90 0 264 2 387 3 l223 2 20 50 c10 28 25 64 33 82 8 17
15 34 15 37 0 3 9 25 19 49 11 23 50 116 86 207 36 91 73 179 81 197 8 17 14
34 14 38 0 3 9 25 19 48 10 23 49 116 86 207 37 91 72 176 78 190 5 14 11 30
13 35 12 43 208 503 224 525 28 40 82 50 134 25z m-411 -2263 c14 -13 30 -36
37 -51 15 -37 -6 -97 -43 -125 -26 -20 -45 -21 -263 -26 l-236 -5 -44 -110
c-25 -60 -49 -119 -54 -130 -5 -11 -48 -114 -95 -230 -47 -115 -104 -255 -127
-310 -47 -115 -70 -143 -121 -152 -72 -11 -129 35 -130 106 -1 30 71 223 148
396 7 17 38 93 70 170 31 77 60 149 65 160 4 11 15 36 24 57 9 20 16 39 16 42
0 3 -147 6 -327 6 -349 0 -359 1 -395 50 -41 55 -21 135 42 167 20 10 176 12
717 10 l691 -2 25 -23z"/>
</g>
</svg>
